<?xml version="1.0" encoding="UTF-8"?>
<!DOCTYPE svg PUBLIC "-//W3C//DTD SVG 1.1//EN" "http://www.w3.org/Graphics/SVG/1.1/DTD/svg11.dtd">
<svg xmlns="http://www.w3.org/2000/svg" version="1.1" width="8px" height="9px" style="shape-rendering:geometricPrecision; text-rendering:geometricPrecision; image-rendering:optimizeQuality; fill-rule:evenodd; clip-rule:evenodd" xmlns:xlink="http://www.w3.org/1999/xlink">
<g><path style="opacity:0.729" fill="#9c9f9b" d="M -0.5,0.5 C -0.5,0.166667 -0.5,-0.166667 -0.5,-0.5C 1.16667,-0.5 2.83333,-0.5 4.5,-0.5C 4.5,-0.166667 4.5,0.166667 4.5,0.5C 3.66175,0.841711 3.32842,1.50838 3.5,2.5C 3.16667,2.5 2.83333,2.5 2.5,2.5C 1.83333,2.83333 1.16667,3.16667 0.5,3.5C 0.166667,3.5 -0.166667,3.5 -0.5,3.5C -0.5,2.83333 -0.5,2.16667 -0.5,1.5C 0.833333,1.16667 0.833333,0.833333 -0.5,0.5 Z"/></g>
<g><path style="opacity:0.659" fill="#dda834" d="M 4.5,-0.5 C 5.16667,-0.5 5.83333,-0.5 6.5,-0.5C 6.5,-0.166667 6.5,0.166667 6.5,0.5C 6.5,1.16667 6.5,1.83333 6.5,2.5C 5.16667,2.5 4.5,1.83333 4.5,0.5C 4.5,0.166667 4.5,-0.166667 4.5,-0.5 Z"/></g>
<g><path style="opacity:1" fill="#dbae46" d="M 4.5,0.5 C 4.5,1.83333 5.16667,2.5 6.5,2.5C 6.15829,3.33825 5.49162,3.67158 4.5,3.5C 3.83333,3.5 3.5,3.16667 3.5,2.5C 3.32842,1.50838 3.66175,0.841711 4.5,0.5 Z"/></g>
<g><path style="opacity:0.753" fill="#bfba7b" d="M 2.5,2.5 C 2.92271,4.78121 2.25605,6.44787 0.5,7.5C 1.83333,6.16667 1.83333,4.83333 0.5,3.5C 1.16667,3.16667 1.83333,2.83333 2.5,2.5 Z"/></g>
<g><path style="opacity:0.939" fill="#978b54" d="M 2.5,2.5 C 2.83333,2.5 3.16667,2.5 3.5,2.5C 3.5,3.16667 3.83333,3.5 4.5,3.5C 5.30071,5.04181 5.63404,6.70848 5.5,8.5C 3.5,8.5 1.5,8.5 -0.5,8.5C -0.5,8.16667 -0.5,7.83333 -0.5,7.5C -0.166667,7.5 0.166667,7.5 0.5,7.5C 2.25605,6.44787 2.92271,4.78121 2.5,2.5 Z"/></g>
<g><path style="opacity:0.925" fill="#d7a643" d="M 6.5,0.5 C 6.83333,0.5 7.16667,0.5 7.5,0.5C 7.5,1.83333 7.5,3.16667 7.5,4.5C 6.16667,5.5 6.16667,6.5 7.5,7.5C 7.5,7.83333 7.5,8.16667 7.5,8.5C 6.83333,8.5 6.16667,8.5 5.5,8.5C 5.63404,6.70848 5.30071,5.04181 4.5,3.5C 5.49162,3.67158 6.15829,3.33825 6.5,2.5C 6.5,1.83333 6.5,1.16667 6.5,0.5 Z"/></g>
<g><path style="opacity:0.784" fill="#d6cf89" d="M -0.5,3.5 C -0.166667,3.5 0.166667,3.5 0.5,3.5C 1.83333,4.83333 1.83333,6.16667 0.5,7.5C 0.166667,7.5 -0.166667,7.5 -0.5,7.5C -0.5,6.16667 -0.5,4.83333 -0.5,3.5 Z"/></g>
</svg>
